<svg xmlns="http://www.w3.org/2000/svg" width="64" height="64" viewBox="0 0 64 64" role="img" aria-label="Pigeon">
  <rect width="64" height="64" rx="14" fill="#111114" />

  <!--
    "P" from Inter Bold (700), the same family the app brand uses via the
    font-family token in index.css. Real glyph outline extracted from the font,
    with the font-unit transform baked into the coordinates so the path needs no
    wrapping group transform. Renders identically everywhere without depending on
    a web font being available. Inter is licensed under the SIL Open Font License 1.1.

    NOTE: this file is parsed as strict XML by browsers, so the comment text must
    never contain a double hyphen. A parse error here silently kills the whole icon.
  -->
  <path
    fill="#ffffff"
    d="M17.05 52L17.05 12L32.65 12Q37.21 12 40.41 13.73Q43.6 15.46 45.28 18.51Q46.96 21.56 46.96 25.5Q46.96 29.48 45.25 32.5Q43.55 35.52 40.31 37.22Q37.08 38.93 32.46 38.93L22.42 38.93L22.42 32.32L31.14 32.32Q33.67 32.32 35.29 31.45Q36.92 30.58 37.71 29.05Q38.5 27.52 38.5 25.5Q38.5 23.49 37.71 21.97Q36.92 20.46 35.28 19.61Q33.64 18.77 31.12 18.77L25.24 18.77L25.24 52Z" />
</svg>
